<?xml version="1.0" encoding="utf-8"?>
<!-- Svg Vector Icons : http://www.onlinewebfonts.com/icon -->
<!DOCTYPE svg PUBLIC "-//W3C//DTD SVG 1.1//EN" "http://www.w3.org/Graphics/SVG/1.1/DTD/svg11.dtd">
<svg version="1.1" xmlns="http://www.w3.org/2000/svg" xmlns:xlink="http://www.w3.org/1999/xlink" x="0px" y="0px" viewBox="0 0 256 256" enable-background="new 0 0 256 256" xml:space="preserve">
<metadata> Svg Vector Icons : http://www.onlinewebfonts.com/icon </metadata>
<g><g><g><path fill="#000000" d="M149.5,31.6c-3,1.5-5.5,5.4-5.5,8.5c0,2.3,2.5,6.8,4.5,8.2c1.5,1.2,2.8,1.3,10.9,1.5l9.2,0.2v78v78l-9.2,0.2c-8.1,0.2-9.4,0.3-10.9,1.5c-2,1.5-4.5,6-4.5,8.2c0,3.1,2.6,6.9,5.5,8.5l2.8,1.4l27.2-0.2c26.4-0.2,27.2-0.2,28.9-1.5c4.5-3.3,5.8-8.6,3.2-13.2c-2.3-4.1-4.7-4.9-14.6-4.9h-8.7V128V49.9h8.8c8.1,0,9-0.1,10.9-1.4c6.4-4.3,6.5-12,0.4-16.7c-1.7-1.2-2.5-1.3-28.9-1.5l-27.2-0.1L149.5,31.6z"/><path fill="#000000" d="M16.6,74.7c-3,1.1-3.9,2-5.4,4.7c-1.1,2.3-1.2,4.1-1.2,48.6v46.3l1.4,2.4c0.7,1.4,2.3,3,3.5,3.7c2.2,1.3,2.8,1.3,73.6,1.5l71.4,0.1V128V73.9H89.5C32.1,73.9,18.5,74.1,16.6,74.7z M71.4,98.8c2,1,1.4-0.2,13.9,27.9c6.6,14.7,9.5,22.1,9.5,23.7s-0.5,2.8-1.8,4.2c-1.5,1.7-2.2,2-4.5,2c-3.6,0-5.5-1.7-7.3-6.6l-1.4-3.6h-12h-12l-1.1,3.1c-0.6,1.7-1.8,3.9-2.6,4.9c-2.6,3.1-7.1,3-10-0.1c-2.6-2.8-2-4.5,9.6-30.2C61,103.5,62.7,100,64.3,99C66.6,97.6,69.1,97.5,71.4,98.8z"/><path fill="#000000" d="M64.7,125.6c-1.8,4.2-3.3,7.9-3.5,8.3c-0.2,0.6,1.3,0.8,6.5,0.8c3.8,0,6.8-0.2,6.8-0.6c0-0.5-6.1-15.5-6.5-15.9C68,118.1,66.5,121.5,64.7,125.6z"/><path fill="#000000" d="M197.4,128v54.1l20.8-0.2c19.6-0.2,20.8-0.2,22.9-1.5c1.2-0.7,2.8-2.3,3.5-3.7l1.4-2.4V128V81.6l-1.4-2.4c-0.7-1.4-2.3-3-3.5-3.7c-2-1.2-3.3-1.3-22.9-1.5l-20.8-0.2V128L197.4,128z"/></g></g></g>
</svg>