<svg class="svg-icon" style="width: 1em; height: 1em;vertical-align: middle;fill: currentColor;overflow: hidden;" viewBox="0 0 1024 1024" version="1.1" xmlns="http://www.w3.org/2000/svg"><path d="M298.666667 640h128a42.666667 42.666667 0 0 0 0-85.333333H298.666667a42.666667 42.666667 0 0 0 0 85.333333zM810.666667 213.333333H213.333333a128 128 0 0 0-128 128v384a128 128 0 0 0 128 128h597.333334a128 128 0 0 0 128-128V341.333333a128 128 0 0 0-128-128z m42.666666 512a42.666667 42.666667 0 0 1-42.666666 42.666667H213.333333a42.666667 42.666667 0 0 1-42.666666-42.666667v-256h682.666666z m0-341.333333H170.666667V341.333333a42.666667 42.666667 0 0 1 42.666666-42.666666h597.333334a42.666667 42.666667 0 0 1 42.666666 42.666666z"  /></svg>